<?xml version="1.0" encoding="UTF-8"?>
<svg id="Layer_1" data-name="Layer 1" xmlns="http://www.w3.org/2000/svg" viewBox="0 0 16 16">
  <defs>
    <style>
      .cls-1 {
        fill: #fff;
        fill-rule: evenodd;
      }
    </style>
  </defs>
  <path class="cls-1" d="M15.5,8c0,4.14-3.36,7.5-7.5,7.5S.5,12.14,.5,8,3.86,.5,8,.5s7.5,3.36,7.5,7.5Zm.5,0c0,4.42-3.58,8-8,8S0,12.42,0,8,3.58,0,8,0s8,3.58,8,8Zm-10.16,.17l-.32-.83-.34,.83h.66Zm-.47-1.11h.32l.77,1.89h-.31l-.21-.57h-.84l-.23,.57h-.29l.8-1.89Zm1.47,1.07h2.25v.19h-2.25v-.19Zm3.88,.58c-.06,.02-.14,.03-.24,.03h-.51v-1.45h.51c.23,0,.4,.06,.5,.19,.1,.13,.16,.31,.16,.54,0,.06,0,.13-.02,.2-.03,.12-.07,.22-.12,.29-.07,.1-.16,.16-.27,.19Zm-.18-1.64h-.86v1.89h.85c.36,0,.62-.14,.77-.43,.08-.16,.13-.34,.13-.54,0-.26-.07-.47-.21-.64-.16-.18-.39-.28-.68-.28Z"/>
</svg>